<?xml version="1.0" encoding="UTF-8" standalone="no"?>
<!DOCTYPE svg PUBLIC "-//W3C//DTD SVG 1.1//EN"
 "http://www.w3.org/Graphics/SVG/1.1/DTD/svg11.dtd">
<!-- Generated by graphviz version 12.2.1 (20241206.2353)
 -->
<!-- Title: model_evaluator.ModelEvaluator.load_model Pages: 1 -->
<svg width="416pt" height="57pt"
 viewBox="0.00 0.00 415.75 56.50" xmlns="http://www.w3.org/2000/svg" xmlns:xlink="http://www.w3.org/1999/xlink">
<g id="graph0" class="graph" transform="scale(1 1) rotate(0) translate(4 52.5)">
<title>model_evaluator.ModelEvaluator.load_model</title>
<!-- Node1 -->
<g id="Node000001" class="node">
<title>Node1</title>
<g id="a_Node000001"><a xlink:title=" ">
<polygon fill="#999999" stroke="#666666" points="407.75,-30.5 231.25,-30.5 231.25,0 407.75,0 407.75,-30.5"/>
<text text-anchor="start" x="239.25" y="-17" font-family="Helvetica,sans-Serif" font-size="10.00">model_evaluator.ModelEvaluator.load</text>
<text text-anchor="middle" x="319.5" y="-5.75" font-family="Helvetica,sans-Serif" font-size="10.00">_model</text>
</a>
</g>
</g>
<!-- Node1&#45;&gt;Node1 -->
<g id="edge2_Node000001_Node000001" class="edge">
<title>Node1&#45;&gt;Node1</title>
<g id="a_edge2_Node000001_Node000001"><a xlink:title=" ">
<path fill="none" stroke="#63b8ff" d="M356.71,-42.2C350.62,-45.97 338.22,-48.5 319.5,-48.5 285.27,-48.5 272.16,-40.06 280.18,-30.99"/>
<polygon fill="#63b8ff" stroke="#63b8ff" points="360.13,-42.95 358.54,-32.47 353.25,-41.66 360.13,-42.95"/>
</a>
</g>
</g>
<!-- Node2 -->
<g id="Node000002" class="node">
<title>Node2</title>
<g id="a_Node000002"><a xlink:href="classmodel__evaluator_1_1ModelEvaluator.html#ab1c15567d430b1afc16526d469b6df83" target="_top" xlink:title=" ">
<polygon fill="white" stroke="#666666" points="195.25,-24.88 0,-24.88 0,-5.63 195.25,-5.63 195.25,-24.88"/>
<text text-anchor="middle" x="97.62" y="-11.38" font-family="Helvetica,sans-Serif" font-size="10.00">model_evaluator.ModelEvaluator.evaluate</text>
</a>
</g>
</g>
<!-- Node1&#45;&gt;Node2 -->
<g id="edge1_Node000001_Node000002" class="edge">
<title>Node1&#45;&gt;Node2</title>
<g id="a_edge1_Node000001_Node000002"><a xlink:title=" ">
<path fill="none" stroke="#63b8ff" d="M219.72,-15.25C211.71,-15.25 203.62,-15.25 195.62,-15.25"/>
<polygon fill="#63b8ff" stroke="#63b8ff" points="219.45,-18.75 229.45,-15.25 219.45,-11.75 219.45,-18.75"/>
</a>
</g>
</g>
</g>
</svg>
