<?xml version="1.0" encoding="UTF-8" standalone="no"?>
<!DOCTYPE svg PUBLIC "-//W3C//DTD SVG 1.1//EN"
 "http://www.w3.org/Graphics/SVG/1.1/DTD/svg11.dtd">
<!-- Generated by graphviz version 12.2.1 (20241206.2353)
 -->
<!-- Title: model_evaluator.ModelEvaluator.evaluate Pages: 1 -->
<svg width="425pt" height="106pt"
 viewBox="0.00 0.00 424.75 105.50" xmlns="http://www.w3.org/2000/svg" xmlns:xlink="http://www.w3.org/1999/xlink">
<g id="graph0" class="graph" transform="scale(1 1) rotate(0) translate(4 101.5)">
<title>model_evaluator.ModelEvaluator.evaluate</title>
<!-- Node1 -->
<g id="Node000001" class="node">
<title>Node1</title>
<g id="a_Node000001"><a xlink:title=" ">
<polygon fill="#999999" stroke="#666666" points="195.25,-57.88 0,-57.88 0,-38.62 195.25,-38.62 195.25,-57.88"/>
<text text-anchor="middle" x="97.62" y="-44.38" font-family="Helvetica,sans-Serif" font-size="10.00">model_evaluator.ModelEvaluator.evaluate</text>
</a>
</g>
</g>
<!-- Node2 -->
<g id="Node000002" class="node">
<title>Node2</title>
<g id="a_Node000002"><a xlink:href="classmodel__evaluator_1_1ModelEvaluator.html#a83ad255fa458cbe44ba78f84eb332754" target="_top" xlink:title=" ">
<polygon fill="white" stroke="#666666" points="416.75,-97.5 231.25,-97.5 231.25,-67 416.75,-67 416.75,-97.5"/>
<text text-anchor="start" x="239.25" y="-84" font-family="Helvetica,sans-Serif" font-size="10.00">model_evaluator.ModelEvaluator.create</text>
<text text-anchor="middle" x="324" y="-72.75" font-family="Helvetica,sans-Serif" font-size="10.00">_data_generator</text>
</a>
</g>
</g>
<!-- Node1&#45;&gt;Node2 -->
<g id="edge1_Node000001_Node000002" class="edge">
<title>Node1&#45;&gt;Node2</title>
<g id="a_edge1_Node000001_Node000002"><a xlink:title=" ">
<path fill="none" stroke="#63b8ff" d="M165.34,-58.36C182.43,-60.95 201.21,-63.8 219.67,-66.59"/>
<polygon fill="#63b8ff" stroke="#63b8ff" points="218.89,-70.01 229.3,-68.05 219.94,-63.09 218.89,-70.01"/>
</a>
</g>
</g>
<!-- Node3 -->
<g id="Node000003" class="node">
<title>Node3</title>
<g id="a_Node000003"><a xlink:href="classmodel__evaluator_1_1ModelEvaluator.html#abb18ab833f58be5cfc99cd3219598d0b" target="_top" xlink:title=" ">
<polygon fill="white" stroke="#666666" points="412.25,-30.5 235.75,-30.5 235.75,0 412.25,0 412.25,-30.5"/>
<text text-anchor="start" x="243.75" y="-17" font-family="Helvetica,sans-Serif" font-size="10.00">model_evaluator.ModelEvaluator.load</text>
<text text-anchor="middle" x="324" y="-5.75" font-family="Helvetica,sans-Serif" font-size="10.00">_model</text>
</a>
</g>
</g>
<!-- Node1&#45;&gt;Node3 -->
<g id="edge2_Node000001_Node000003" class="edge">
<title>Node1&#45;&gt;Node3</title>
<g id="a_edge2_Node000001_Node000003"><a xlink:title=" ">
<path fill="none" stroke="#63b8ff" d="M167.16,-38.17C185.16,-35.52 204.92,-32.62 224.16,-29.79"/>
<polygon fill="#63b8ff" stroke="#63b8ff" points="224.52,-33.27 233.9,-28.35 223.5,-26.35 224.52,-33.27"/>
</a>
</g>
</g>
<!-- Node3&#45;&gt;Node3 -->
<g id="edge3_Node000003_Node000003" class="edge">
<title>Node3&#45;&gt;Node3</title>
<g id="a_edge3_Node000003_Node000003"><a xlink:title=" ">
<path fill="none" stroke="#63b8ff" d="M283.89,-30.99C275.7,-40.06 289.07,-48.5 324,-48.5 343.1,-48.5 355.76,-45.97 361.96,-42.2"/>
<polygon fill="#63b8ff" stroke="#63b8ff" points="365.38,-42.95 363.83,-32.47 358.51,-41.63 365.38,-42.95"/>
</a>
</g>
</g>
</g>
</svg>
