<?xml version="1.0" encoding="UTF-8" standalone="no"?>
<!DOCTYPE svg PUBLIC "-//W3C//DTD SVG 1.1//EN"
 "http://www.w3.org/Graphics/SVG/1.1/DTD/svg11.dtd">
<!-- Generated by graphviz version 12.2.1 (20241206.2353)
 -->
<!-- Title: generator.CustomDataGenerator.__getitem__ Pages: 1 -->
<svg width="399pt" height="76pt"
 viewBox="0.00 0.00 399.25 75.88" xmlns="http://www.w3.org/2000/svg" xmlns:xlink="http://www.w3.org/1999/xlink">
<g id="graph0" class="graph" transform="scale(1 1) rotate(0) translate(4 71.88)">
<title>generator.CustomDataGenerator.__getitem__</title>
<!-- Node1 -->
<g id="Node000001" class="node">
<title>Node1</title>
<g id="a_Node000001"><a xlink:title=" ">
<polygon fill="#999999" stroke="#666666" points="157.75,-45.88 0,-45.88 0,-15.37 157.75,-15.37 157.75,-45.88"/>
<text text-anchor="start" x="8" y="-32.38" font-family="Helvetica,sans-Serif" font-size="10.00">generator.CustomDataGenerator.</text>
<text text-anchor="middle" x="78.88" y="-21.12" font-family="Helvetica,sans-Serif" font-size="10.00">__getitem__</text>
</a>
</g>
</g>
<!-- Node2 -->
<g id="Node000002" class="node">
<title>Node2</title>
<g id="a_Node000002"><a xlink:href="classgenerator_1_1CustomDataGenerator.html#af6ef5974ccb44efb8f239012849ec7fb" target="_top" xlink:title=" ">
<polygon fill="white" stroke="#666666" points="380.75,-67.88 204.25,-67.88 204.25,-37.38 380.75,-37.38 380.75,-67.88"/>
<text text-anchor="start" x="212.25" y="-54.38" font-family="Helvetica,sans-Serif" font-size="10.00">generator.CustomDataGenerator.read</text>
<text text-anchor="middle" x="292.5" y="-43.12" font-family="Helvetica,sans-Serif" font-size="10.00">_binary_label</text>
</a>
</g>
</g>
<!-- Node1&#45;&gt;Node2 -->
<g id="edge1_Node000001_Node000002" class="edge">
<title>Node1&#45;&gt;Node2</title>
<g id="a_edge1_Node000001_Node000002"><a xlink:title=" ">
<path fill="none" stroke="#63b8ff" d="M158.08,-38.75C169.41,-39.93 181.19,-41.16 192.86,-42.37"/>
<polygon fill="#63b8ff" stroke="#63b8ff" points="192.18,-45.82 202.49,-43.37 192.91,-38.86 192.18,-45.82"/>
</a>
</g>
</g>
<!-- Node3 -->
<g id="Node000003" class="node">
<title>Node3</title>
<g id="a_Node000003"><a xlink:href="classgenerator_1_1CustomDataGenerator.html#a650bff00ecc680571ff4d2dec8d83972" target="_top" xlink:title=" ">
<polygon fill="white" stroke="#666666" points="391.25,-19.25 193.75,-19.25 193.75,0 391.25,0 391.25,-19.25"/>
<text text-anchor="middle" x="292.5" y="-5.75" font-family="Helvetica,sans-Serif" font-size="10.00">generator.CustomDataGenerator.read_img</text>
</a>
</g>
</g>
<!-- Node1&#45;&gt;Node3 -->
<g id="edge2_Node000001_Node000003" class="edge">
<title>Node1&#45;&gt;Node3</title>
<g id="a_edge2_Node000001_Node000003"><a xlink:title=" ">
<path fill="none" stroke="#63b8ff" d="M158.08,-22.87C165.92,-22.09 173.98,-21.29 182.07,-20.48"/>
<polygon fill="#63b8ff" stroke="#63b8ff" points="182.39,-23.97 192,-19.5 181.7,-17 182.39,-23.97"/>
</a>
</g>
</g>
</g>
</svg>
