<?xml version="1.0" encoding="UTF-8" standalone="no"?>
<!DOCTYPE svg PUBLIC "-//W3C//DTD SVG 1.1//EN"
 "http://www.w3.org/Graphics/SVG/1.1/DTD/svg11.dtd">
<!-- Generated by graphviz version 12.2.1 (20241206.2353)
 -->
<!-- Title: model_trainer.main Pages: 1 -->
<svg width="267pt" height="45pt"
 viewBox="0.00 0.00 266.50 45.25" xmlns="http://www.w3.org/2000/svg" xmlns:xlink="http://www.w3.org/1999/xlink">
<g id="graph0" class="graph" transform="scale(1 1) rotate(0) translate(4 41.25)">
<title>model_trainer.main</title>
<!-- Node1 -->
<g id="Node000001" class="node">
<title>Node1</title>
<g id="a_Node000001"><a xlink:title=" ">
<polygon fill="#999999" stroke="#666666" points="97.75,-19.25 0,-19.25 0,0 97.75,0 97.75,-19.25"/>
<text text-anchor="middle" x="48.88" y="-5.75" font-family="Helvetica,sans-Serif" font-size="10.00">model_trainer.main</text>
</a>
</g>
</g>
<!-- Node1&#45;&gt;Node1 -->
<g id="edge1_Node000001_Node000001" class="edge">
<title>Node1&#45;&gt;Node1</title>
<g id="a_edge1_Node000001_Node000001"><a xlink:title=" ">
<path fill="none" stroke="#63b8ff" d="M25.82,-19.54C15.31,-28.15 22.99,-37.25 48.88,-37.25 63.43,-37.25 72.24,-34.37 75.28,-30.32"/>
<polygon fill="#63b8ff" stroke="#63b8ff" points="78.69,-29.49 72.38,-20.98 72,-31.57 78.69,-29.49"/>
</a>
</g>
</g>
<!-- Node2 -->
<g id="Node000002" class="node">
<title>Node2</title>
<g id="a_Node000002"><a xlink:href="namespacemodel__trainer.html#aa06ee02874134b1403dc7499197c7df8" target="_top" xlink:title=" ">
<polygon fill="white" stroke="#666666" points="258.5,-19.25 133.75,-19.25 133.75,0 258.5,0 258.5,-19.25"/>
<text text-anchor="middle" x="196.12" y="-5.75" font-family="Helvetica,sans-Serif" font-size="10.00">model_trainer.parse_args</text>
</a>
</g>
</g>
<!-- Node1&#45;&gt;Node2 -->
<g id="edge2_Node000001_Node000002" class="edge">
<title>Node1&#45;&gt;Node2</title>
<g id="a_edge2_Node000001_Node000002"><a xlink:title=" ">
<path fill="none" stroke="#63b8ff" d="M98.24,-9.62C105.87,-9.62 113.9,-9.62 121.94,-9.62"/>
<polygon fill="#63b8ff" stroke="#63b8ff" points="121.76,-13.13 131.76,-9.63 121.76,-6.13 121.76,-13.13"/>
</a>
</g>
</g>
</g>
</svg>
