<?xml version="1.0" encoding="UTF-8" standalone="no"?>
<!DOCTYPE svg PUBLIC "-//W3C//DTD SVG 1.1//EN"
 "http://www.w3.org/Graphics/SVG/1.1/DTD/svg11.dtd">
<!-- Generated by graphviz version 12.2.1 (20241206.2353)
 -->
<!-- Title: eval_bins.convert_to_uint8 Pages: 1 -->
<svg width="381pt" height="39pt"
 viewBox="0.00 0.00 380.75 38.50" xmlns="http://www.w3.org/2000/svg" xmlns:xlink="http://www.w3.org/1999/xlink">
<g id="graph0" class="graph" transform="scale(1 1) rotate(0) translate(4 34.5)">
<title>eval_bins.convert_to_uint8</title>
<!-- Node1 -->
<g id="Node000001" class="node">
<title>Node1</title>
<g id="a_Node000001"><a xlink:title=" ">
<polygon fill="#999999" stroke="#666666" points="372.75,-30.5 267.5,-30.5 267.5,0 372.75,0 372.75,-30.5"/>
<text text-anchor="start" x="275.5" y="-17" font-family="Helvetica,sans-Serif" font-size="10.00">eval_bins.convert_to</text>
<text text-anchor="middle" x="320.12" y="-5.75" font-family="Helvetica,sans-Serif" font-size="10.00">_uint8</text>
</a>
</g>
</g>
<!-- Node2 -->
<g id="Node000002" class="node">
<title>Node2</title>
<g id="a_Node000002"><a xlink:href="namespaceeval__bins.html#ac7c51bc5047eb138f7ba99e0e5c620f9" target="_top" xlink:title=" ">
<polygon fill="white" stroke="#666666" points="231.5,-30.5 113.5,-30.5 113.5,0 231.5,0 231.5,-30.5"/>
<text text-anchor="start" x="121.5" y="-17" font-family="Helvetica,sans-Serif" font-size="10.00">eval_bins.run_inference</text>
<text text-anchor="middle" x="172.5" y="-5.75" font-family="Helvetica,sans-Serif" font-size="10.00">_quant</text>
</a>
</g>
</g>
<!-- Node1&#45;&gt;Node2 -->
<g id="edge1_Node000001_Node000002" class="edge">
<title>Node1&#45;&gt;Node2</title>
<g id="a_edge1_Node000001_Node000002"><a xlink:title=" ">
<path fill="none" stroke="#63b8ff" d="M256.1,-15.25C248.02,-15.25 239.78,-15.25 231.78,-15.25"/>
<polygon fill="#63b8ff" stroke="#63b8ff" points="255.86,-18.75 265.86,-15.25 255.86,-11.75 255.86,-18.75"/>
</a>
</g>
</g>
<!-- Node3 -->
<g id="Node000003" class="node">
<title>Node3</title>
<g id="a_Node000003"><a xlink:href="namespaceeval__bins.html#a59d469959a23173798ea4caa323305b1" target="_top" xlink:title=" ">
<polygon fill="white" stroke="#666666" points="77.5,-24.88 0,-24.88 0,-5.63 77.5,-5.63 77.5,-24.88"/>
<text text-anchor="middle" x="38.75" y="-11.38" font-family="Helvetica,sans-Serif" font-size="10.00">eval_bins.eval</text>
</a>
</g>
</g>
<!-- Node2&#45;&gt;Node3 -->
<g id="edge2_Node000002_Node000003" class="edge">
<title>Node2&#45;&gt;Node3</title>
<g id="a_edge2_Node000002_Node000003"><a xlink:title=" ">
<path fill="none" stroke="#63b8ff" d="M102.03,-15.25C93.75,-15.25 85.54,-15.25 77.93,-15.25"/>
<polygon fill="#63b8ff" stroke="#63b8ff" points="101.82,-18.75 111.82,-15.25 101.82,-11.75 101.82,-18.75"/>
</a>
</g>
</g>
</g>
</svg>
