<?xml version="1.0" encoding="UTF-8" standalone="no"?>
<!DOCTYPE svg PUBLIC "-//W3C//DTD SVG 1.1//EN"
 "http://www.w3.org/Graphics/SVG/1.1/DTD/svg11.dtd">
<!-- Generated by graphviz version 12.2.1 (20241206.2353)
 -->
<!-- Title: eval_bins.eval Pages: 1 -->
<svg width="384pt" height="199pt"
 viewBox="0.00 0.00 383.75 198.50" xmlns="http://www.w3.org/2000/svg" xmlns:xlink="http://www.w3.org/1999/xlink">
<g id="graph0" class="graph" transform="scale(1 1) rotate(0) translate(4 194.5)">
<title>eval_bins.eval</title>
<!-- Node1 -->
<g id="Node000001" class="node">
<title>Node1</title>
<g id="a_Node000001"><a xlink:title=" ">
<polygon fill="#999999" stroke="#666666" points="77.5,-104.88 0,-104.88 0,-85.62 77.5,-85.62 77.5,-104.88"/>
<text text-anchor="middle" x="38.75" y="-91.38" font-family="Helvetica,sans-Serif" font-size="10.00">eval_bins.eval</text>
</a>
</g>
</g>
<!-- Node2 -->
<g id="Node000002" class="node">
<title>Node2</title>
<g id="a_Node000002"><a xlink:href="namespaceeval__bins.html#ae2355f85be6a1bfb826dc267fb6cddf4" target="_top" xlink:title=" ">
<polygon fill="white" stroke="#666666" points="233.75,-190.5 113.5,-190.5 113.5,-160 233.75,-160 233.75,-190.5"/>
<text text-anchor="start" x="121.5" y="-177" font-family="Helvetica,sans-Serif" font-size="10.00">eval_bins.get_path</text>
<text text-anchor="middle" x="173.62" y="-165.75" font-family="Helvetica,sans-Serif" font-size="10.00">_without_last_extension</text>
</a>
</g>
</g>
<!-- Node1&#45;&gt;Node2 -->
<g id="edge1_Node000001_Node000002" class="edge">
<title>Node1&#45;&gt;Node2</title>
<g id="a_edge1_Node000001_Node000002"><a xlink:title=" ">
<path fill="none" stroke="#63b8ff" d="M50.6,-104.96C64.44,-116.99 89.47,-137.57 113.5,-151.25 115.53,-152.41 117.63,-153.53 119.77,-154.63"/>
<polygon fill="#63b8ff" stroke="#63b8ff" points="118.1,-157.71 128.63,-158.88 121.12,-151.4 118.1,-157.71"/>
</a>
</g>
</g>
<!-- Node3 -->
<g id="Node000003" class="node">
<title>Node3</title>
<g id="a_Node000003"><a xlink:href="namespaceeval__bins.html#a14e251e7a43376888bc07e51d3b422c1" target="_top" xlink:title=" ">
<polygon fill="white" stroke="#666666" points="224.38,-141.88 122.88,-141.88 122.88,-122.62 224.38,-122.62 224.38,-141.88"/>
<text text-anchor="middle" x="173.62" y="-128.38" font-family="Helvetica,sans-Serif" font-size="10.00">eval_bins.open_img</text>
</a>
</g>
</g>
<!-- Node1&#45;&gt;Node3 -->
<g id="edge2_Node000001_Node000003" class="edge">
<title>Node1&#45;&gt;Node3</title>
<g id="a_edge2_Node000001_Node000003"><a xlink:title=" ">
<path fill="none" stroke="#63b8ff" d="M76.06,-105.36C91.29,-109.6 109.21,-114.59 125.44,-119.11"/>
<polygon fill="#63b8ff" stroke="#63b8ff" points="124.33,-122.43 134.9,-121.75 126.21,-115.69 124.33,-122.43"/>
</a>
</g>
</g>
<!-- Node4 -->
<g id="Node000004" class="node">
<title>Node4</title>
<g id="a_Node000004"><a xlink:href="namespaceeval__bins.html#a2254017fd8995a8769ad1f423a445166" target="_top" xlink:title=" ">
<polygon fill="white" stroke="#666666" points="221.75,-104.88 125.5,-104.88 125.5,-85.62 221.75,-85.62 221.75,-104.88"/>
<text text-anchor="middle" x="173.62" y="-91.38" font-family="Helvetica,sans-Serif" font-size="10.00">eval_bins.parse_id</text>
</a>
</g>
</g>
<!-- Node1&#45;&gt;Node4 -->
<g id="edge3_Node000001_Node000004" class="edge">
<title>Node1&#45;&gt;Node4</title>
<g id="a_edge3_Node000001_Node000004"><a xlink:title=" ">
<path fill="none" stroke="#63b8ff" d="M77.83,-95.25C88.98,-95.25 101.46,-95.25 113.59,-95.25"/>
<polygon fill="#63b8ff" stroke="#63b8ff" points="113.56,-98.75 123.56,-95.25 113.56,-91.75 113.56,-98.75"/>
</a>
</g>
</g>
<!-- Node6 -->
<g id="Node000006" class="node">
<title>Node6</title>
<g id="a_Node000006"><a xlink:href="namespaceeval__bins.html#a0d6d05e4fe898a2de8d03e8f84165f31" target="_top" xlink:title=" ">
<polygon fill="white" stroke="#666666" points="232.62,-67.88 114.62,-67.88 114.62,-48.62 232.62,-48.62 232.62,-67.88"/>
<text text-anchor="middle" x="173.62" y="-54.38" font-family="Helvetica,sans-Serif" font-size="10.00">eval_bins.run_inference</text>
</a>
</g>
</g>
<!-- Node1&#45;&gt;Node6 -->
<g id="edge5_Node000001_Node000006" class="edge">
<title>Node1&#45;&gt;Node6</title>
<g id="a_edge5_Node000001_Node000006"><a xlink:title=" ">
<path fill="none" stroke="#63b8ff" d="M76.06,-85.14C91.29,-80.9 109.21,-75.91 125.44,-71.39"/>
<polygon fill="#63b8ff" stroke="#63b8ff" points="126.21,-74.81 134.9,-68.75 124.33,-68.07 126.21,-74.81"/>
</a>
</g>
</g>
<!-- Node7 -->
<g id="Node000007" class="node">
<title>Node7</title>
<g id="a_Node000007"><a xlink:href="namespaceeval__bins.html#ac7c51bc5047eb138f7ba99e0e5c620f9" target="_top" xlink:title=" ">
<polygon fill="white" stroke="#666666" points="232.62,-30.5 114.62,-30.5 114.62,0 232.62,0 232.62,-30.5"/>
<text text-anchor="start" x="122.62" y="-17" font-family="Helvetica,sans-Serif" font-size="10.00">eval_bins.run_inference</text>
<text text-anchor="middle" x="173.62" y="-5.75" font-family="Helvetica,sans-Serif" font-size="10.00">_quant</text>
</a>
</g>
</g>
<!-- Node1&#45;&gt;Node7 -->
<g id="edge6_Node000001_Node000007" class="edge">
<title>Node1&#45;&gt;Node7</title>
<g id="a_edge6_Node000001_Node000007"><a xlink:title=" ">
<path fill="none" stroke="#63b8ff" d="M50.6,-85.54C64.44,-73.51 89.47,-52.93 113.5,-39.25 115.53,-38.09 117.63,-36.97 119.77,-35.87"/>
<polygon fill="#63b8ff" stroke="#63b8ff" points="121.12,-39.1 128.63,-31.62 118.1,-32.79 121.12,-39.1"/>
</a>
</g>
</g>
<!-- Node5 -->
<g id="Node000005" class="node">
<title>Node5</title>
<g id="a_Node000005"><a xlink:href="namespaceeval__bins.html#aed458fb6d427982442aac5ddd36c2e9c" target="_top" xlink:title=" ">
<polygon fill="white" stroke="#666666" points="375.75,-110.5 269.75,-110.5 269.75,-80 375.75,-80 375.75,-110.5"/>
<text text-anchor="start" x="277.75" y="-97" font-family="Helvetica,sans-Serif" font-size="10.00">eval_bins.parse_yolo</text>
<text text-anchor="middle" x="322.75" y="-85.75" font-family="Helvetica,sans-Serif" font-size="10.00">_bbox_line</text>
</a>
</g>
</g>
<!-- Node4&#45;&gt;Node5 -->
<g id="edge4_Node000004_Node000005" class="edge">
<title>Node4&#45;&gt;Node5</title>
<g id="a_edge4_Node000004_Node000005"><a xlink:title=" ">
<path fill="none" stroke="#63b8ff" d="M221.99,-95.25C233.44,-95.25 245.88,-95.25 257.96,-95.25"/>
<polygon fill="#63b8ff" stroke="#63b8ff" points="257.87,-98.75 267.87,-95.25 257.87,-91.75 257.87,-98.75"/>
</a>
</g>
</g>
<!-- Node8 -->
<g id="Node000008" class="node">
<title>Node8</title>
<g id="a_Node000008"><a xlink:href="namespaceeval__bins.html#a4a2ba984b27fc9b1c985b9063dbe72f0" target="_top" xlink:title=" ">
<polygon fill="white" stroke="#666666" points="375.38,-30.5 270.12,-30.5 270.12,0 375.38,0 375.38,-30.5"/>
<text text-anchor="start" x="278.12" y="-17" font-family="Helvetica,sans-Serif" font-size="10.00">eval_bins.convert_to</text>
<text text-anchor="middle" x="322.75" y="-5.75" font-family="Helvetica,sans-Serif" font-size="10.00">_uint8</text>
</a>
</g>
</g>
<!-- Node7&#45;&gt;Node8 -->
<g id="edge7_Node000007_Node000008" class="edge">
<title>Node7&#45;&gt;Node8</title>
<g id="a_edge7_Node000007_Node000008"><a xlink:title=" ">
<path fill="none" stroke="#63b8ff" d="M232.77,-15.25C241.17,-15.25 249.84,-15.25 258.33,-15.25"/>
<polygon fill="#63b8ff" stroke="#63b8ff" points="258.24,-18.75 268.24,-15.25 258.24,-11.75 258.24,-18.75"/>
</a>
</g>
</g>
</g>
</svg>
