<?xml version="1.0" encoding="UTF-8" standalone="no"?>
<!DOCTYPE svg PUBLIC "-//W3C//DTD SVG 1.1//EN"
 "http://www.w3.org/Graphics/SVG/1.1/DTD/svg11.dtd">
<!-- Generated by graphviz version 12.2.1 (20241206.2353)
 -->
<!-- Title: eval_bins.parse_yolo_bbox_line Pages: 1 -->
<svg width="360pt" height="39pt"
 viewBox="0.00 0.00 359.75 38.50" xmlns="http://www.w3.org/2000/svg" xmlns:xlink="http://www.w3.org/1999/xlink">
<g id="graph0" class="graph" transform="scale(1 1) rotate(0) translate(4 34.5)">
<title>eval_bins.parse_yolo_bbox_line</title>
<!-- Node1 -->
<g id="Node000001" class="node">
<title>Node1</title>
<g id="a_Node000001"><a xlink:title=" ">
<polygon fill="#999999" stroke="#666666" points="351.75,-30.5 245.75,-30.5 245.75,0 351.75,0 351.75,-30.5"/>
<text text-anchor="start" x="253.75" y="-17" font-family="Helvetica,sans-Serif" font-size="10.00">eval_bins.parse_yolo</text>
<text text-anchor="middle" x="298.75" y="-5.75" font-family="Helvetica,sans-Serif" font-size="10.00">_bbox_line</text>
</a>
</g>
</g>
<!-- Node2 -->
<g id="Node000002" class="node">
<title>Node2</title>
<g id="a_Node000002"><a xlink:href="namespaceeval__bins.html#a2254017fd8995a8769ad1f423a445166" target="_top" xlink:title=" ">
<polygon fill="white" stroke="#666666" points="209.75,-24.88 113.5,-24.88 113.5,-5.63 209.75,-5.63 209.75,-24.88"/>
<text text-anchor="middle" x="161.62" y="-11.38" font-family="Helvetica,sans-Serif" font-size="10.00">eval_bins.parse_id</text>
</a>
</g>
</g>
<!-- Node1&#45;&gt;Node2 -->
<g id="edge1_Node000001_Node000002" class="edge">
<title>Node1&#45;&gt;Node2</title>
<g id="a_edge1_Node000001_Node000002"><a xlink:title=" ">
<path fill="none" stroke="#63b8ff" d="M234.08,-15.25C225.93,-15.25 217.7,-15.25 209.87,-15.25"/>
<polygon fill="#63b8ff" stroke="#63b8ff" points="233.99,-18.75 243.99,-15.25 233.99,-11.75 233.99,-18.75"/>
</a>
</g>
</g>
<!-- Node3 -->
<g id="Node000003" class="node">
<title>Node3</title>
<g id="a_Node000003"><a xlink:href="namespaceeval__bins.html#a59d469959a23173798ea4caa323305b1" target="_top" xlink:title=" ">
<polygon fill="white" stroke="#666666" points="77.5,-24.88 0,-24.88 0,-5.63 77.5,-5.63 77.5,-24.88"/>
<text text-anchor="middle" x="38.75" y="-11.38" font-family="Helvetica,sans-Serif" font-size="10.00">eval_bins.eval</text>
</a>
</g>
</g>
<!-- Node2&#45;&gt;Node3 -->
<g id="edge2_Node000002_Node000003" class="edge">
<title>Node2&#45;&gt;Node3</title>
<g id="a_edge2_Node000002_Node000003"><a xlink:title=" ">
<path fill="none" stroke="#63b8ff" d="M101.74,-15.25C93.57,-15.25 85.36,-15.25 77.71,-15.25"/>
<polygon fill="#63b8ff" stroke="#63b8ff" points="101.69,-18.75 111.69,-15.25 101.69,-11.75 101.69,-18.75"/>
</a>
</g>
</g>
</g>
</svg>
